<svg width="237" height="240" viewBox="0 0 237 240" fill="none" xmlns="http://www.w3.org/2000/svg">
<path d="M196.74 238.499C208.684 231.311 224.553 221.284 234.977 212.273M234.977 212.273C236.179 211.235 226.076 204.918 225.586 204.666C214.835 199.132 203.691 195.175 192.246 191.386M234.977 212.273C163.09 236.129 91.0842 210.055 67.1989 161.602C64.8315 156.799 62.2599 151.57 60.1646 146.134M60.1646 146.134C56.8277 137.477 54.6986 128.297 56.5259 119.485C58.2127 111.353 63.8339 101.47 72.1071 98.8249C87.562 93.8851 100.631 110.991 95.4364 125.748C90.8721 138.716 73.441 149.06 60.1646 146.134ZM60.1646 146.134C59.8845 146.072 59.6064 146.005 59.3302 145.931C-7.33212 128.161 -11.4466 47.1091 22.2999 1.8301" stroke="white" stroke-width="3" stroke-miterlimit="1.5" stroke-linecap="round" stroke-linejoin="round"/>
</svg>
